<mxfile host="app.diagrams.net" modified="2023-06-18T08:07:53.291Z" agent="Mozilla/5.0 (Macintosh; Intel Mac OS X 10_15_7) AppleWebKit/537.36 (KHTML, like Gecko) Chrome/114.0.0.0 Safari/537.36" etag="O7fC_12qjONoV4QADXN3" version="21.4.0" type="github">
  <diagram name="페이지-1" id="DM0ggkmJFtXix6DNAQyy">
    <mxGraphModel dx="879" dy="645" grid="1" gridSize="10" guides="1" tooltips="1" connect="1" arrows="1" fold="1" page="1" pageScale="1" pageWidth="827" pageHeight="1169" math="0" shadow="0">
      <root>
        <mxCell id="0" />
        <mxCell id="1" parent="0" />
        <mxCell id="sVMq51q926s-85349Xmb-1" value="이용자&lt;br&gt;" style="shape=umlActor;verticalLabelPosition=bottom;verticalAlign=top;html=1;" vertex="1" parent="1">
          <mxGeometry x="50" y="320" width="30" height="60" as="geometry" />
        </mxCell>
        <mxCell id="sVMq51q926s-85349Xmb-5" value="게시판 서비스" style="shape=umlFrame;whiteSpace=wrap;html=1;pointerEvents=0;width=90;height=20;" vertex="1" parent="1">
          <mxGeometry x="160" y="200" width="630" height="510" as="geometry" />
        </mxCell>
        <mxCell id="sVMq51q926s-85349Xmb-17" style="edgeStyle=orthogonalEdgeStyle;rounded=0;orthogonalLoop=1;jettySize=auto;html=1;endArrow=none;endFill=0;" edge="1" parent="1" source="sVMq51q926s-85349Xmb-6" target="sVMq51q926s-85349Xmb-1">
          <mxGeometry relative="1" as="geometry" />
        </mxCell>
        <mxCell id="sVMq51q926s-85349Xmb-6" value="회원가입" style="rounded=1;whiteSpace=wrap;html=1;arcSize=40;fontColor=#000000;fillColor=#ffffc0;strokeColor=#ff0000;" vertex="1" parent="1">
          <mxGeometry x="190" y="270" width="120" height="40" as="geometry" />
        </mxCell>
        <mxCell id="sVMq51q926s-85349Xmb-19" style="edgeStyle=orthogonalEdgeStyle;rounded=0;orthogonalLoop=1;jettySize=auto;html=1;entryX=0.333;entryY=0.833;entryDx=0;entryDy=0;entryPerimeter=0;endArrow=none;endFill=0;" edge="1" parent="1" source="sVMq51q926s-85349Xmb-8" target="sVMq51q926s-85349Xmb-1">
          <mxGeometry relative="1" as="geometry" />
        </mxCell>
        <mxCell id="sVMq51q926s-85349Xmb-25" style="edgeStyle=orthogonalEdgeStyle;rounded=0;orthogonalLoop=1;jettySize=auto;html=1;entryX=0;entryY=0.75;entryDx=0;entryDy=0;dashed=1;" edge="1" parent="1" source="sVMq51q926s-85349Xmb-8" target="sVMq51q926s-85349Xmb-10">
          <mxGeometry relative="1" as="geometry" />
        </mxCell>
        <mxCell id="sVMq51q926s-85349Xmb-8" value="게시판 보기" style="rounded=1;whiteSpace=wrap;html=1;arcSize=40;fontColor=#000000;fillColor=#ffffc0;strokeColor=#ff0000;" vertex="1" parent="1">
          <mxGeometry x="200" y="420" width="120" height="40" as="geometry" />
        </mxCell>
        <mxCell id="sVMq51q926s-85349Xmb-20" style="edgeStyle=orthogonalEdgeStyle;rounded=0;orthogonalLoop=1;jettySize=auto;html=1;entryX=0.8;entryY=0.9;entryDx=0;entryDy=0;entryPerimeter=0;endArrow=none;endFill=0;" edge="1" parent="1" source="sVMq51q926s-85349Xmb-9" target="sVMq51q926s-85349Xmb-1">
          <mxGeometry relative="1" as="geometry" />
        </mxCell>
        <mxCell id="sVMq51q926s-85349Xmb-26" style="edgeStyle=orthogonalEdgeStyle;rounded=0;orthogonalLoop=1;jettySize=auto;html=1;entryX=0;entryY=0.75;entryDx=0;entryDy=0;dashed=1;" edge="1" parent="1" source="sVMq51q926s-85349Xmb-9" target="sVMq51q926s-85349Xmb-10">
          <mxGeometry relative="1" as="geometry" />
        </mxCell>
        <mxCell id="sVMq51q926s-85349Xmb-9" value="게시글 보기" style="rounded=1;whiteSpace=wrap;html=1;arcSize=40;fontColor=#000000;fillColor=#ffffc0;strokeColor=#ff0000;" vertex="1" parent="1">
          <mxGeometry x="200" y="570" width="120" height="40" as="geometry" />
        </mxCell>
        <mxCell id="sVMq51q926s-85349Xmb-18" style="edgeStyle=orthogonalEdgeStyle;rounded=0;orthogonalLoop=1;jettySize=auto;html=1;entryX=0.5;entryY=0;entryDx=0;entryDy=0;entryPerimeter=0;endArrow=none;endFill=0;" edge="1" parent="1" source="sVMq51q926s-85349Xmb-10" target="sVMq51q926s-85349Xmb-1">
          <mxGeometry relative="1" as="geometry" />
        </mxCell>
        <mxCell id="sVMq51q926s-85349Xmb-21" value="&amp;lt;&amp;lt;include&amp;gt;&amp;gt;" style="edgeStyle=orthogonalEdgeStyle;rounded=0;orthogonalLoop=1;jettySize=auto;html=1;endArrow=classic;endFill=1;dashed=1;" edge="1" parent="1" source="sVMq51q926s-85349Xmb-10" target="sVMq51q926s-85349Xmb-11">
          <mxGeometry relative="1" as="geometry" />
        </mxCell>
        <mxCell id="sVMq51q926s-85349Xmb-10" value="회원 로그인" style="rounded=1;whiteSpace=wrap;html=1;arcSize=40;fontColor=#000000;fillColor=#ffffc0;strokeColor=#ff0000;" vertex="1" parent="1">
          <mxGeometry x="414" y="230" width="120" height="40" as="geometry" />
        </mxCell>
        <mxCell id="sVMq51q926s-85349Xmb-11" value="인증" style="rounded=1;whiteSpace=wrap;html=1;arcSize=40;fontColor=#000000;fillColor=#ffffc0;strokeColor=#ff0000;" vertex="1" parent="1">
          <mxGeometry x="660" y="230" width="120" height="40" as="geometry" />
        </mxCell>
        <mxCell id="sVMq51q926s-85349Xmb-23" style="edgeStyle=orthogonalEdgeStyle;rounded=0;orthogonalLoop=1;jettySize=auto;html=1;dashed=1;" edge="1" parent="1" source="sVMq51q926s-85349Xmb-12" target="sVMq51q926s-85349Xmb-10">
          <mxGeometry relative="1" as="geometry" />
        </mxCell>
        <mxCell id="sVMq51q926s-85349Xmb-24" value="&amp;lt;&amp;lt;extend&amp;gt;&amp;gt;" style="edgeLabel;html=1;align=center;verticalAlign=middle;resizable=0;points=[];" vertex="1" connectable="0" parent="sVMq51q926s-85349Xmb-23">
          <mxGeometry x="-0.0451" y="3" relative="1" as="geometry">
            <mxPoint as="offset" />
          </mxGeometry>
        </mxCell>
        <mxCell id="sVMq51q926s-85349Xmb-12" value="로그인 실패" style="rounded=1;whiteSpace=wrap;html=1;arcSize=40;fontColor=#000000;fillColor=#ffffc0;strokeColor=#ff0000;" vertex="1" parent="1">
          <mxGeometry x="660" y="330" width="120" height="40" as="geometry" />
        </mxCell>
        <mxCell id="sVMq51q926s-85349Xmb-27" style="edgeStyle=orthogonalEdgeStyle;rounded=0;orthogonalLoop=1;jettySize=auto;html=1;entryX=1;entryY=0.25;entryDx=0;entryDy=0;dashed=1;" edge="1" parent="1" source="sVMq51q926s-85349Xmb-13" target="sVMq51q926s-85349Xmb-8">
          <mxGeometry relative="1" as="geometry" />
        </mxCell>
        <mxCell id="sVMq51q926s-85349Xmb-13" value="게시판 정렬" style="rounded=1;whiteSpace=wrap;html=1;arcSize=40;fontColor=#000000;fillColor=#ffffc0;strokeColor=#ff0000;" vertex="1" parent="1">
          <mxGeometry x="470" y="420" width="120" height="40" as="geometry" />
        </mxCell>
        <mxCell id="sVMq51q926s-85349Xmb-28" style="edgeStyle=orthogonalEdgeStyle;rounded=0;orthogonalLoop=1;jettySize=auto;html=1;entryX=1;entryY=0.75;entryDx=0;entryDy=0;dashed=1;" edge="1" parent="1" source="sVMq51q926s-85349Xmb-14" target="sVMq51q926s-85349Xmb-8">
          <mxGeometry relative="1" as="geometry" />
        </mxCell>
        <mxCell id="sVMq51q926s-85349Xmb-14" value="게시판 검색" style="rounded=1;whiteSpace=wrap;html=1;arcSize=40;fontColor=#000000;fillColor=#ffffc0;strokeColor=#ff0000;" vertex="1" parent="1">
          <mxGeometry x="470" y="490" width="120" height="40" as="geometry" />
        </mxCell>
        <mxCell id="sVMq51q926s-85349Xmb-31" style="edgeStyle=orthogonalEdgeStyle;rounded=0;orthogonalLoop=1;jettySize=auto;html=1;entryX=1;entryY=0.75;entryDx=0;entryDy=0;dashed=1;" edge="1" parent="1" source="sVMq51q926s-85349Xmb-15" target="sVMq51q926s-85349Xmb-9">
          <mxGeometry relative="1" as="geometry" />
        </mxCell>
        <mxCell id="sVMq51q926s-85349Xmb-15" value="게시글 쓰기, 수정, 삭제" style="rounded=1;whiteSpace=wrap;html=1;arcSize=40;fontColor=#000000;fillColor=#ffffc0;strokeColor=#ff0000;" vertex="1" parent="1">
          <mxGeometry x="470" y="580" width="120" height="40" as="geometry" />
        </mxCell>
        <mxCell id="sVMq51q926s-85349Xmb-32" style="edgeStyle=orthogonalEdgeStyle;rounded=0;orthogonalLoop=1;jettySize=auto;html=1;entryX=1;entryY=0.75;entryDx=0;entryDy=0;dashed=1;" edge="1" parent="1" source="sVMq51q926s-85349Xmb-16" target="sVMq51q926s-85349Xmb-9">
          <mxGeometry relative="1" as="geometry" />
        </mxCell>
        <mxCell id="sVMq51q926s-85349Xmb-16" value="댓글 보기, 쓰기, 수정,&lt;br&gt;&amp;nbsp;삭제" style="rounded=1;whiteSpace=wrap;html=1;arcSize=40;fontColor=#000000;fillColor=#ffffc0;strokeColor=#ff0000;" vertex="1" parent="1">
          <mxGeometry x="470" y="650" width="120" height="40" as="geometry" />
        </mxCell>
      </root>
    </mxGraphModel>
  </diagram>
</mxfile>
